<svg width="558" height="483" viewBox="0 0 558 483" fill="none" xmlns="http://www.w3.org/2000/svg">
<g clip-path="url(#clip0_4_8186)">
<path d="M440.635 39.886C440.008 39.4678 439.373 39.0712 438.746 38.6675C420.619 27.0707 401.189 17.6496 380.858 10.5988L376.144 75.6478H346.259V1.10314C344.378 0.713794 342.482 0.346082 340.587 0V75.6478H305.072C285.521 75.6478 266.771 67.8791 252.947 54.0507C239.122 40.2223 231.355 21.467 231.355 1.91074C229.452 2.32171 227.564 2.76146 225.675 3.23011V75.6478H196.749L192.259 13.6198C171.366 21.6347 151.531 32.1747 133.196 45.0051C132.879 45.2214 132.561 45.4449 132.251 45.6612C130.658 46.7788 129.087 47.918 127.523 49.0716V297.234H212.773L211.266 276.361L202.977 161.757H369.909L361.62 276.361L360.113 297.234H444.419V42.3951C443.165 41.5443 441.903 40.7079 440.635 39.886ZM225.675 142.831H201.608L197.16 81.3293H225.675V142.831ZM340.587 142.831H300.164V141.613C300.164 141.027 300.048 140.447 299.824 139.906C299.6 139.365 299.271 138.873 298.856 138.459C298.442 138.045 297.95 137.717 297.409 137.494C296.868 137.27 296.287 137.156 295.702 137.157H278.129C277.544 137.156 276.964 137.272 276.424 137.495C275.883 137.719 275.392 138.047 274.978 138.461C274.564 138.875 274.236 139.366 274.013 139.907C273.789 140.448 273.674 141.027 273.674 141.613V142.831H231.355V81.3293H340.587V142.831ZM346.259 142.831V81.3293H375.733L371.286 142.831H346.259Z" fill="#F2F2F2"/>
<path d="M533.218 451.024L533.781 438.351C539.655 435.211 546.206 433.552 552.866 433.519C543.7 441.015 544.845 455.465 538.631 465.545C536.668 468.675 534.027 471.322 530.903 473.291C527.779 475.261 524.252 476.501 520.583 476.922L512.912 481.62C511.86 475.75 512.092 469.723 513.593 463.952C515.093 458.181 517.827 452.804 521.605 448.191C523.75 445.625 526.21 443.338 528.926 441.387C530.763 446.232 533.218 451.024 533.218 451.024Z" fill="#F2F2F2"/>
<path d="M121.672 437.137L103.161 431.531C100.733 421.666 100.75 411.356 103.21 401.499C110.832 417.872 132.613 421.621 145.165 434.604C149.05 438.684 151.966 443.585 153.699 448.945C155.432 454.305 155.937 459.987 155.176 465.569L159.228 478.677C150.16 478.022 141.341 475.409 133.38 471.017C125.419 466.625 118.504 460.559 113.113 453.237C110.129 449.099 107.678 444.602 105.817 439.851C113.668 438.96 121.672 437.137 121.672 437.137Z" fill="#F2F2F2"/>
<path d="M518.814 479.548C518.811 479.931 518.658 480.299 518.388 480.572C518.255 480.705 518.096 480.81 517.922 480.882C517.747 480.954 517.56 480.99 517.372 480.99H511.577C511.387 480.99 511.199 480.954 511.024 480.881C510.849 480.809 510.69 480.703 510.556 480.569C510.422 480.435 510.316 480.276 510.243 480.1C510.171 479.925 510.134 479.737 510.135 479.548V304.243C510.135 300.378 508.838 297.242 507.245 297.234H72.965C71.3648 297.242 70.0745 300.378 70.0673 304.243V478.473C70.0661 478.832 69.932 479.177 69.691 479.442C69.45 479.707 69.1192 479.873 68.7627 479.908C67.5949 480.024 66.4272 480.124 65.2667 480.218C65.2379 480.218 65.2091 480.225 65.1802 480.225C64.5459 480.283 63.9116 480.326 63.2773 480.377H63.2701C62.9385 479.778 62.6214 479.166 62.297 478.553C62.193 478.344 62.1387 478.115 62.1384 477.882V295.151C62.1384 294.084 62.1817 293.009 62.2538 291.949C62.3566 290.494 62.5371 289.045 62.7944 287.609C64.0125 280.911 66.766 276.376 69.8943 276.361H510.308C510.765 276.364 511.216 276.46 511.634 276.642C512.249 276.915 512.805 277.304 513.27 277.789C513.903 278.446 514.443 279.186 514.878 279.988C516.42 282.706 517.523 286.758 517.913 291.474C517.913 291.517 517.92 291.56 517.92 291.603C518.021 292.771 518.071 293.961 518.064 295.151L518.165 310.602L518.23 319.816L518.424 348.729L518.496 358.996L518.814 479.548Z" fill="#E6E6E6"/>
<path d="M557.142 482.778L358.379 483C358.152 482.999 357.934 482.909 357.774 482.748C357.613 482.587 357.523 482.369 357.523 482.142C357.523 481.914 357.613 481.696 357.774 481.535C357.934 481.375 358.152 481.284 358.379 481.283L557.142 481.062C557.369 481.062 557.587 481.153 557.747 481.314C557.907 481.475 557.998 481.693 557.998 481.92C557.998 482.147 557.907 482.365 557.747 482.526C557.587 482.687 557.369 482.778 557.142 482.778Z" fill="#CACACA"/>
<path d="M310.429 225.142H275.226C274.728 225.142 274.251 225.341 273.899 225.694C273.547 226.046 273.35 226.524 273.351 227.022V282.648H312.309V227.022C312.309 226.775 312.261 226.531 312.166 226.302C312.072 226.074 311.933 225.867 311.759 225.692C311.584 225.517 311.377 225.379 311.149 225.284C310.92 225.19 310.676 225.141 310.429 225.142ZM292.946 256.747C291.845 256.742 290.791 256.302 290.012 255.524C289.234 254.745 288.794 253.691 288.789 252.589V246.173C288.789 245.071 289.227 244.013 290.007 243.233C290.786 242.453 291.843 242.015 292.946 242.015C294.048 242.015 295.106 242.453 295.885 243.233C296.665 244.013 297.103 245.071 297.103 246.173V252.589C297.098 253.691 296.658 254.745 295.88 255.524C295.101 256.302 294.047 256.742 292.946 256.747Z" fill="#2F2E41"/>
<path d="M368.722 138.332H218.243C216.95 138.334 215.711 138.849 214.797 139.763C213.883 140.678 213.368 141.917 213.366 143.21V244.782C213.367 246.075 213.881 247.316 214.796 248.23C215.71 249.145 216.95 249.659 218.243 249.66H368.722C370.015 249.659 371.255 249.145 372.169 248.23C373.084 247.316 373.598 246.075 373.599 244.782V143.21C373.597 141.917 373.083 140.678 372.168 139.763C371.254 138.849 370.015 138.334 368.722 138.332Z" fill="#3F3D56"/>
<path d="M367.463 141.854H219.498C218.805 141.856 218.142 142.132 217.653 142.622C217.164 143.112 216.889 143.776 216.889 144.469V243.523C216.891 244.214 217.166 244.877 217.655 245.366C218.144 245.855 218.806 246.131 219.498 246.132H367.463C368.155 246.131 368.817 245.855 369.306 245.366C369.795 244.877 370.07 244.214 370.072 243.523V144.469C370.072 143.776 369.797 143.112 369.308 142.622C368.819 142.132 368.156 141.856 367.463 141.854Z" fill="white"/>
<path d="M273.23 280.869V286.236C273.23 286.514 273.341 286.781 273.538 286.977C273.734 287.174 274.001 287.285 274.279 287.285H311.381C311.659 287.284 311.925 287.173 312.121 286.976C312.318 286.78 312.429 286.514 312.43 286.236V280.869H273.23Z" fill="#3F3D56"/>
<path d="M338.645 289.152H250.613C250.372 289.152 250.134 289.098 249.917 288.995C249.699 288.891 249.507 288.74 249.356 288.553C249.204 288.366 249.096 288.147 249.039 287.913C248.982 287.679 248.979 287.435 249.028 287.199L250.394 280.709C250.472 280.346 250.672 280.021 250.96 279.787C251.248 279.553 251.608 279.425 251.979 279.423H337.279C337.65 279.425 338.01 279.553 338.298 279.787C338.586 280.021 338.786 280.346 338.863 280.709L340.229 287.199C340.279 287.435 340.275 287.679 340.219 287.913C340.162 288.147 340.054 288.366 339.902 288.553C339.75 288.74 339.559 288.891 339.341 288.995C339.123 289.098 338.886 289.152 338.645 289.152Z" fill="#2F2E41"/>
<path d="M254.963 280.592H252.956C252.762 280.592 252.604 280.749 252.604 280.944V281.867C252.604 282.061 252.762 282.219 252.956 282.219H254.963C255.158 282.219 255.315 282.061 255.315 281.867V280.944C255.315 280.749 255.158 280.592 254.963 280.592Z" fill="#3F3D56"/>
<path d="M260.386 280.592H258.379C258.184 280.592 258.027 280.749 258.027 280.944V281.867C258.027 282.061 258.184 282.219 258.379 282.219H260.386C260.58 282.219 260.738 282.061 260.738 281.867V280.944C260.738 280.749 260.58 280.592 260.386 280.592Z" fill="#3F3D56"/>
<path d="M265.809 280.592H263.801C263.607 280.592 263.449 280.749 263.449 280.944V281.867C263.449 282.061 263.607 282.219 263.801 282.219H265.809C266.003 282.219 266.161 282.061 266.161 281.867V280.944C266.161 280.749 266.003 280.592 265.809 280.592Z" fill="#3F3D56"/>
<path d="M271.231 280.592H269.223C269.029 280.592 268.872 280.749 268.872 280.944V281.867C268.872 282.061 269.029 282.219 269.223 282.219H271.231C271.425 282.219 271.583 282.061 271.583 281.867V280.944C271.583 280.749 271.425 280.592 271.231 280.592Z" fill="#3F3D56"/>
<path d="M276.654 280.592H274.646C274.452 280.592 274.294 280.749 274.294 280.944V281.867C274.294 282.061 274.452 282.219 274.646 282.219H276.654C276.848 282.219 277.005 282.061 277.005 281.867V280.944C277.005 280.749 276.848 280.592 276.654 280.592Z" fill="#3F3D56"/>
<path d="M282.076 280.592H280.069C279.874 280.592 279.717 280.749 279.717 280.944V281.867C279.717 282.061 279.874 282.219 280.069 282.219H282.076C282.271 282.219 282.428 282.061 282.428 281.867V280.944C282.428 280.749 282.271 280.592 282.076 280.592Z" fill="#3F3D56"/>
<path d="M287.499 280.592H285.491C285.297 280.592 285.139 280.749 285.139 280.944V281.867C285.139 282.061 285.297 282.219 285.491 282.219H287.499C287.693 282.219 287.851 282.061 287.851 281.867V280.944C287.851 280.749 287.693 280.592 287.499 280.592Z" fill="#3F3D56"/>
<path d="M292.921 280.592H290.914C290.72 280.592 290.562 280.749 290.562 280.944V281.867C290.562 282.061 290.72 282.219 290.914 282.219H292.921C293.116 282.219 293.273 282.061 293.273 281.867V280.944C293.273 280.749 293.116 280.592 292.921 280.592Z" fill="#3F3D56"/>
<path d="M298.344 280.592H296.337C296.142 280.592 295.985 280.749 295.985 280.944V281.867C295.985 282.061 296.142 282.219 296.337 282.219H298.344C298.538 282.219 298.696 282.061 298.696 281.867V280.944C298.696 280.749 298.538 280.592 298.344 280.592Z" fill="#3F3D56"/>
<path d="M303.767 280.592H301.759C301.565 280.592 301.407 280.749 301.407 280.944V281.867C301.407 282.061 301.565 282.219 301.759 282.219H303.767C303.961 282.219 304.119 282.061 304.119 281.867V280.944C304.119 280.749 303.961 280.592 303.767 280.592Z" fill="#3F3D56"/>
<path d="M309.189 280.592H307.181C306.987 280.592 306.83 280.749 306.83 280.944V281.867C306.83 282.061 306.987 282.219 307.181 282.219H309.189C309.383 282.219 309.541 282.061 309.541 281.867V280.944C309.541 280.749 309.383 280.592 309.189 280.592Z" fill="#3F3D56"/>
<path d="M314.612 280.592H312.604C312.41 280.592 312.252 280.749 312.252 280.944V281.867C312.252 282.061 312.41 282.219 312.604 282.219H314.612C314.806 282.219 314.963 282.061 314.963 281.867V280.944C314.963 280.749 314.806 280.592 314.612 280.592Z" fill="#3F3D56"/>
<path d="M320.034 280.592H318.027C317.832 280.592 317.675 280.749 317.675 280.944V281.867C317.675 282.061 317.832 282.219 318.027 282.219H320.034C320.229 282.219 320.386 282.061 320.386 281.867V280.944C320.386 280.749 320.229 280.592 320.034 280.592Z" fill="#3F3D56"/>
<path d="M325.457 280.592H323.449C323.255 280.592 323.097 280.749 323.097 280.944V281.867C323.097 282.061 323.255 282.219 323.449 282.219H325.457C325.651 282.219 325.809 282.061 325.809 281.867V280.944C325.809 280.749 325.651 280.592 325.457 280.592Z" fill="#3F3D56"/>
<path d="M330.879 280.592H328.872C328.678 280.592 328.52 280.749 328.52 280.944V281.867C328.52 282.061 328.678 282.219 328.872 282.219H330.879C331.074 282.219 331.231 282.061 331.231 281.867V280.944C331.231 280.749 331.074 280.592 330.879 280.592Z" fill="#3F3D56"/>
<path d="M336.302 280.592H334.295C334.1 280.592 333.943 280.749 333.943 280.944V281.867C333.943 282.061 334.1 282.219 334.295 282.219H336.302C336.496 282.219 336.654 282.061 336.654 281.867V280.944C336.654 280.749 336.496 280.592 336.302 280.592Z" fill="#3F3D56"/>
<path d="M254.899 283.304H252.892C252.698 283.304 252.54 283.461 252.54 283.656V284.579C252.54 284.773 252.698 284.931 252.892 284.931H254.899C255.094 284.931 255.251 284.773 255.251 284.579V283.656C255.251 283.461 255.094 283.304 254.899 283.304Z" fill="#3F3D56"/>
<path d="M260.322 283.304H258.314C258.12 283.304 257.962 283.461 257.962 283.656V284.579C257.962 284.773 258.12 284.931 258.314 284.931H260.322C260.516 284.931 260.674 284.773 260.674 284.579V283.656C260.674 283.461 260.516 283.304 260.322 283.304Z" fill="#3F3D56"/>
<path d="M265.744 283.304H263.737C263.543 283.304 263.385 283.461 263.385 283.656V284.579C263.385 284.773 263.543 284.931 263.737 284.931H265.744C265.939 284.931 266.096 284.773 266.096 284.579V283.656C266.096 283.461 265.939 283.304 265.744 283.304Z" fill="#3F3D56"/>
<path d="M271.167 283.304H269.16C268.965 283.304 268.808 283.461 268.808 283.656V284.579C268.808 284.773 268.965 284.931 269.16 284.931H271.167C271.361 284.931 271.519 284.773 271.519 284.579V283.656C271.519 283.461 271.361 283.304 271.167 283.304Z" fill="#3F3D56"/>
<path d="M276.59 283.304H274.582C274.388 283.304 274.23 283.461 274.23 283.656V284.579C274.23 284.773 274.388 284.931 274.582 284.931H276.59C276.784 284.931 276.942 284.773 276.942 284.579V283.656C276.942 283.461 276.784 283.304 276.59 283.304Z" fill="#3F3D56"/>
<path d="M282.012 283.304H280.005C279.81 283.304 279.653 283.461 279.653 283.656V284.579C279.653 284.773 279.81 284.931 280.005 284.931H282.012C282.207 284.931 282.364 284.773 282.364 284.579V283.656C282.364 283.461 282.207 283.304 282.012 283.304Z" fill="#3F3D56"/>
<path d="M287.435 283.304H285.427C285.233 283.304 285.075 283.461 285.075 283.656V284.579C285.075 284.773 285.233 284.931 285.427 284.931H287.435C287.629 284.931 287.787 284.773 287.787 284.579V283.656C287.787 283.461 287.629 283.304 287.435 283.304Z" fill="#3F3D56"/>
<path d="M292.857 283.304H290.85C290.655 283.304 290.498 283.461 290.498 283.656V284.579C290.498 284.773 290.655 284.931 290.85 284.931H292.857C293.052 284.931 293.209 284.773 293.209 284.579V283.656C293.209 283.461 293.052 283.304 292.857 283.304Z" fill="#3F3D56"/>
<path d="M298.28 283.304H296.272C296.078 283.304 295.92 283.461 295.92 283.656V284.579C295.92 284.773 296.078 284.931 296.272 284.931H298.28C298.474 284.931 298.632 284.773 298.632 284.579V283.656C298.632 283.461 298.474 283.304 298.28 283.304Z" fill="#3F3D56"/>
<path d="M303.702 283.304H301.695C301.501 283.304 301.343 283.461 301.343 283.656V284.579C301.343 284.773 301.501 284.931 301.695 284.931H303.702C303.897 284.931 304.054 284.773 304.054 284.579V283.656C304.054 283.461 303.897 283.304 303.702 283.304Z" fill="#3F3D56"/>
<path d="M309.125 283.304H307.118C306.923 283.304 306.766 283.461 306.766 283.656V284.579C306.766 284.773 306.923 284.931 307.118 284.931H309.125C309.319 284.931 309.477 284.773 309.477 284.579V283.656C309.477 283.461 309.319 283.304 309.125 283.304Z" fill="#3F3D56"/>
<path d="M314.548 283.304H312.54C312.346 283.304 312.188 283.461 312.188 283.656V284.579C312.188 284.773 312.346 284.931 312.54 284.931H314.548C314.742 284.931 314.9 284.773 314.9 284.579V283.656C314.9 283.461 314.742 283.304 314.548 283.304Z" fill="#3F3D56"/>
<path d="M319.97 283.304H317.963C317.768 283.304 317.611 283.461 317.611 283.656V284.579C317.611 284.773 317.768 284.931 317.963 284.931H319.97C320.165 284.931 320.322 284.773 320.322 284.579V283.656C320.322 283.461 320.165 283.304 319.97 283.304Z" fill="#3F3D56"/>
<path d="M325.393 283.304H323.385C323.191 283.304 323.033 283.461 323.033 283.656V284.579C323.033 284.773 323.191 284.931 323.385 284.931H325.393C325.587 284.931 325.745 284.773 325.745 284.579V283.656C325.745 283.461 325.587 283.304 325.393 283.304Z" fill="#3F3D56"/>
<path d="M330.815 283.304H328.808C328.613 283.304 328.456 283.461 328.456 283.656V284.579C328.456 284.773 328.613 284.931 328.808 284.931H330.815C331.01 284.931 331.167 284.773 331.167 284.579V283.656C331.167 283.461 331.01 283.304 330.815 283.304Z" fill="#3F3D56"/>
<path d="M336.238 283.304H334.23C334.036 283.304 333.878 283.461 333.878 283.656V284.579C333.878 284.773 334.036 284.931 334.23 284.931H336.238C336.432 284.931 336.59 284.773 336.59 284.579V283.656C336.59 283.461 336.432 283.304 336.238 283.304Z" fill="#3F3D56"/>
<path d="M299.907 286.559H278.92C278.726 286.559 278.568 286.716 278.568 286.911V287.834C278.568 288.028 278.726 288.186 278.92 288.186H299.907C300.101 288.186 300.259 288.028 300.259 287.834V286.911C300.259 286.716 300.101 286.559 299.907 286.559Z" fill="#3F3D56"/>
<path d="M360.028 155.503H221.577C221.433 155.5 221.296 155.44 221.195 155.338C221.094 155.235 221.038 155.096 221.038 154.952C221.038 154.808 221.094 154.67 221.195 154.567C221.296 154.464 221.433 154.404 221.577 154.401H360.028C360.172 154.404 360.309 154.464 360.41 154.567C360.511 154.67 360.567 154.808 360.567 154.952C360.567 155.096 360.511 155.235 360.41 155.338C360.309 155.44 360.172 155.5 360.028 155.503Z" fill="#CACACA"/>
<path d="M231.002 151.59C232.784 151.59 234.228 150.112 234.228 148.29C234.228 146.468 232.784 144.991 231.002 144.991C229.22 144.991 227.775 146.468 227.775 148.29C227.775 150.112 229.22 151.59 231.002 151.59Z" fill="#3F3D56"/>
<path d="M242.148 151.59C243.93 151.59 245.375 150.112 245.375 148.29C245.375 146.468 243.93 144.991 242.148 144.991C240.366 144.991 238.922 146.468 238.922 148.29C238.922 150.112 240.366 151.59 242.148 151.59Z" fill="#3F3D56"/>
<path d="M253.295 151.59C255.077 151.59 256.521 150.112 256.521 148.29C256.521 146.468 255.077 144.991 253.295 144.991C251.513 144.991 250.068 146.468 250.068 148.29C250.068 150.112 251.513 151.59 253.295 151.59Z" fill="#3F3D56"/>
<path d="M353.317 145.809H345.399C345.242 145.812 345.092 145.876 344.982 145.988C344.873 146.101 344.811 146.251 344.811 146.408C344.811 146.565 344.873 146.716 344.982 146.828C345.092 146.94 345.242 147.005 345.399 147.008H353.317C353.474 147.005 353.623 146.94 353.733 146.828C353.843 146.716 353.904 146.565 353.904 146.408C353.904 146.251 353.843 146.101 353.733 145.988C353.623 145.876 353.474 145.812 353.317 145.809Z" fill="#3F3D56"/>
<path d="M353.317 148.06H345.399C345.242 148.063 345.092 148.127 344.982 148.239C344.873 148.352 344.811 148.502 344.811 148.659C344.811 148.816 344.873 148.967 344.982 149.079C345.092 149.191 345.242 149.256 345.399 149.259H353.317C353.474 149.256 353.623 149.191 353.733 149.079C353.843 148.967 353.904 148.816 353.904 148.659C353.904 148.502 353.843 148.352 353.733 148.239C353.623 148.127 353.474 148.063 353.317 148.06Z" fill="#3F3D56"/>
<path d="M353.317 150.308H345.399C345.242 150.311 345.092 150.375 344.982 150.487C344.873 150.6 344.811 150.75 344.811 150.907C344.811 151.064 344.873 151.215 344.982 151.327C345.092 151.439 345.242 151.504 345.399 151.507H353.317C353.474 151.504 353.623 151.439 353.733 151.327C353.843 151.215 353.904 151.064 353.904 150.907C353.904 150.75 353.843 150.6 353.733 150.487C353.623 150.375 353.474 150.311 353.317 150.308Z" fill="#3F3D56"/>
<path d="M301.862 187.677H284.562C283.262 187.677 282.209 188.731 282.209 190.031V190.031C282.209 191.331 283.262 192.384 284.562 192.384H301.862C303.161 192.384 304.215 191.331 304.215 190.031V190.031C304.215 188.731 303.161 187.677 301.862 187.677Z" fill="#6C63FF"/>
<path d="M313.038 197.091H273.386C272.087 197.091 271.033 198.145 271.033 199.445V199.445C271.033 200.745 272.087 201.798 273.386 201.798H313.038C314.338 201.798 315.391 200.745 315.391 199.445C315.391 198.145 314.338 197.091 313.038 197.091Z" fill="#E6E6E6"/>
<path d="M313.038 206.505H273.386C272.087 206.505 271.033 207.559 271.033 208.859C271.033 210.159 272.087 211.212 273.386 211.212H313.038C314.338 211.212 315.391 210.159 315.391 208.859C315.391 207.559 314.338 206.505 313.038 206.505Z" fill="#E6E6E6"/>
<path d="M222.929 296.232H179.681C178.151 296.232 176.684 296.84 175.603 297.921C174.522 299.003 173.914 300.47 173.914 302C173.914 303.53 174.522 304.997 175.603 306.079C176.684 307.16 178.151 307.768 179.681 307.768H195.538V352.47H207.071V307.768H222.929C224.458 307.768 225.925 307.16 227.006 306.079C228.088 304.997 228.695 303.53 228.695 302C228.695 300.47 228.088 299.003 227.006 297.921C225.925 296.84 224.458 296.232 222.929 296.232Z" fill="#3F3D56"/>
<path d="M251.474 377.228H135.796C124.582 377.187 113.757 373.111 105.298 365.746C96.8392 358.382 91.3116 348.219 89.7249 337.114L85.6302 322.048C77.155 290.828 64.2457 260.986 47.2967 233.434C39.5499 220.85 35.5627 208.669 44.619 196.94C44.6961 196.841 44.7719 196.742 44.8465 196.645C52.1102 187.188 88.2639 185.141 100.05 184.743C100.516 184.727 100.983 184.719 101.452 184.719H173.402C173.872 184.719 174.339 184.727 174.804 184.743C181.158 184.928 187.343 186.83 192.703 190.248C198.063 193.665 202.398 198.47 205.248 204.153C208.29 209.955 209.705 216.472 209.342 223.014C208.98 229.555 206.854 235.876 203.19 241.306C177.916 279.282 170.178 303.094 178.1 318.515C185.763 333.431 209.253 341.057 252.025 342.514C263.519 342.905 268.794 351.858 268.831 360.01C268.867 367.952 263.795 376.72 252.575 377.204C252.21 377.22 251.843 377.228 251.474 377.228Z" fill="#3F3D56"/>
<path d="M155.447 479.97H198.696C200.225 479.97 201.692 479.363 202.773 478.281C203.855 477.199 204.462 475.732 204.462 474.202C204.462 472.673 203.855 471.205 202.773 470.124C201.692 469.042 200.225 468.434 198.696 468.434H182.838V371.099H171.305V468.434H155.447C153.918 468.434 152.451 469.042 151.37 470.124C150.288 471.205 149.681 472.673 149.681 474.202C149.681 475.732 150.288 477.199 151.37 478.281C152.451 479.363 153.918 479.97 155.447 479.97Z" fill="#3F3D56"/>
<path d="M151.993 188.332L152.9 193.843C153.329 196.515 154.882 215.39 153.731 217.642C153.63 213.438 145.802 206.827 140.731 208.337L132.771 210.106L127.831 211.205L123.811 212.087L112.127 214.64C112.107 214.504 112.092 214.36 112.071 214.225C112.044 214.054 112.016 213.883 111.982 213.713C111.764 212.617 111.367 211.564 110.807 210.598C110.748 211.893 110.366 213.152 109.695 214.262C109.677 214.291 109.661 214.321 109.648 214.353C109.44 214.689 109.211 215.011 108.962 215.317C108.95 215.325 108.94 215.335 108.931 215.346C108.931 215.346 106.53 177.068 106.782 176.714C106.966 176.463 107.151 176.219 107.346 175.981C107.538 175.735 107.725 175.498 107.926 175.258C107.952 175.236 107.974 175.209 107.991 175.179C108.554 174.512 109.15 173.874 109.778 173.268C109.962 173.09 110.153 172.911 110.345 172.732C113.268 170.027 116.76 168.012 120.565 166.836C120.994 166.704 121.44 166.583 121.893 166.461C122.341 166.347 122.797 166.239 123.256 166.145L123.411 166.113C123.63 166.068 123.858 166.029 124.078 165.991C124.355 165.942 124.633 165.9 124.906 165.866C128.446 165.356 132.052 165.559 135.512 166.462C135.519 166.461 135.521 166.468 135.528 166.467C138.416 167.222 141.162 168.445 143.655 170.087C147.968 172.936 149.647 177.582 150.839 182.798C151.257 184.589 151.609 186.453 151.993 188.332Z" fill="#2F2E41"/>
<path d="M194.592 440.729L202.042 444.778L221.765 417.501L210.768 411.526L194.592 440.729Z" fill="#FFB6B6"/>
<path d="M198.178 431.01L211.703 435.247L209.55 440.914L218.825 454.379C219.283 455.044 219.516 455.838 219.491 456.645C219.467 457.452 219.184 458.231 218.686 458.866C218.188 459.501 217.499 459.961 216.721 460.177C215.943 460.393 215.117 460.355 214.362 460.068L198.617 454.085L198.032 447.447L194.843 452.651L188.907 450.395L198.178 431.01Z" fill="#2F2E41"/>
<path d="M236.792 318.727C235.603 319.017 234.365 319.042 233.165 318.802C231.965 318.561 230.832 318.06 229.847 317.334C228.861 316.608 228.047 315.674 227.461 314.599C226.875 313.525 226.532 312.334 226.456 311.112L162.909 288.245L174.571 278.093L234.887 302.115C236.947 302.123 238.933 302.887 240.468 304.262C242.004 305.636 242.981 307.527 243.216 309.575C243.451 311.622 242.927 313.685 241.743 315.372C240.559 317.059 238.797 318.253 236.792 318.727Z" fill="#FFB6B6"/>
<path d="M145.156 231.593C145.156 231.593 134.453 231.829 133.502 244.051C132.55 256.274 155.904 286.506 159.522 291.491C163.14 296.477 203.33 302.613 203.33 302.613L216.993 292.692C202.637 283.387 189.536 276.253 180.743 276.574L145.156 231.593Z" fill="#6C63FF"/>
<path d="M132.03 285.523L134.638 296.732C134.638 296.732 134.663 307.067 136.493 308.973C138.311 310.87 178.268 307.061 178.268 307.061C178.268 307.061 174.032 290.406 174.088 277.804L132.03 285.523Z" fill="#FFB6B6"/>
<path d="M216.442 428.897L202.025 420.966C201.751 402.202 213.035 376.809 226.417 350.212C196.487 355.361 168.251 357.01 143.828 350.782C139.818 349.723 136.386 347.128 134.274 343.558C132.161 339.989 131.538 335.731 132.538 331.706C132.633 331.31 132.743 330.919 132.868 330.532C135.791 321.612 129.236 316.02 135.265 306.209C151.12 300.792 166.182 299.263 179.955 304.046L188.585 323.132L231.359 317.595C233.426 317.348 235.521 317.512 237.524 318.079C239.526 318.645 241.397 319.603 243.028 320.896C244.66 322.189 246.019 323.792 247.027 325.613C248.036 327.434 248.675 329.437 248.906 331.506C248.964 331.97 249.001 332.436 249.019 332.905C240.37 373.463 230.672 409.957 216.442 428.897Z" fill="#2F2E41"/>
<path d="M134.011 208.067C143.685 206.087 149.923 196.637 147.943 186.96C145.964 177.284 136.516 171.044 126.842 173.024C117.168 175.004 110.93 184.454 112.91 194.131C114.889 203.808 124.336 210.047 134.011 208.067Z" fill="#FFB6B6"/>
<path d="M126.224 214.56L142.702 213.586C143.397 213.545 144.087 213.722 144.677 214.092C145.267 214.462 145.726 215.007 145.992 215.651L150.648 226.943L170.002 242.943C170.002 242.943 177.665 252.697 177.683 265.294C177.7 277.891 180.401 307.047 180.401 307.047C180.401 307.047 169.218 291.301 162.315 295.489C161.141 296.202 160.728 297.659 159.498 298.395C158.884 298.762 157.467 298.405 156.847 298.773C147.335 304.421 137.416 309.939 136.489 308.972C134.669 307.072 132.461 297.365 132.461 297.365L117.378 241.929C116.56 239.012 116.398 235.951 116.902 232.964C117.407 229.977 118.566 227.139 120.297 224.653C121.35 223.169 122.454 222.065 123.48 221.882C125.784 221.391 124.559 216.226 126.224 214.56Z" fill="#6C63FF"/>
<path d="M266.398 464.212L273.354 459.374L257.597 429.637L247.331 436.777L266.398 464.212Z" fill="#FFB6B6"/>
<path d="M267.45 444.259L256.549 454.005C239.215 434.686 226.111 407.59 215.006 376.82C185.91 368.296 163.968 354.549 144.812 338.227C138.314 332.727 133.443 325.661 138.985 318.961C139.244 318.648 139.514 318.345 139.796 318.052C146.34 311.325 162.935 312.607 172.654 306.444L194.366 329.658L193 335.882L233.781 349.699C235.744 350.387 237.55 351.457 239.097 352.847C240.644 354.237 241.901 355.919 242.794 357.797C243.688 359.675 244.201 361.711 244.304 363.789C244.407 365.866 244.097 367.943 243.394 369.9C243.241 370.342 243.07 370.778 242.88 371.206L267.45 444.259Z" fill="#2F2E41"/>
<path d="M262.343 462.25L273.477 453.479L276.937 458.458L293.284 458.408C294.091 458.406 294.878 458.661 295.53 459.138C296.182 459.614 296.664 460.287 296.907 461.057C297.15 461.827 297.14 462.655 296.879 463.419C296.618 464.183 296.12 464.844 295.457 465.305L281.627 474.922L275.82 471.655L278.312 477.226L273.097 480.852L262.343 462.25Z" fill="#2F2E41"/>
<path d="M150.557 354.267C149.43 353.789 148.422 353.07 147.603 352.159C146.785 351.249 146.176 350.171 145.819 349C145.462 347.828 145.367 346.593 145.539 345.381C145.711 344.169 146.147 343.01 146.815 341.984L109.51 285.673L124.926 284.5L158.95 339.806C160.597 341.044 161.734 342.843 162.144 344.863C162.554 346.883 162.209 348.983 161.175 350.766C160.14 352.548 158.488 353.889 156.531 354.535C154.574 355.18 152.448 355.085 150.557 354.267Z" fill="#FFB6B6"/>
<path d="M129.108 229.633C129.108 229.633 120.384 223.427 112.321 232.66C104.258 241.893 104.932 280.092 104.856 286.253C104.832 288.182 107.617 292.344 111.453 297.152C113.176 299.31 115.11 301.599 117.098 303.874C118.248 305.19 117.257 307.93 118.412 309.21C119.56 310.483 122.855 310.295 123.948 311.476C129.133 317.082 133.346 321.349 133.346 321.349L150.227 321.557C150.418 309.004 141.824 297.799 130.783 286.97L129.108 229.633Z" fill="#6C63FF"/>
<path d="M152.773 181.858C152.112 182.185 151.47 182.5 150.839 182.798C148.309 184.042 145.695 185.106 143.015 185.982C142.569 184.769 141.889 183.655 141.013 182.705C141.237 184.018 141.123 185.366 140.681 186.622C136.625 187.627 132.367 187.462 128.4 186.148C130.994 190.952 132.911 201.077 132.771 210.106C132.711 214.88 132.065 219.347 130.654 222.557L128.841 217.041C128.673 215.07 128.335 213.118 127.831 211.205C126.616 205.839 125.481 209.427 123.811 212.087L112.127 214.64C112.107 214.505 112.092 214.36 112.071 214.225C112.044 214.054 112.016 213.883 111.982 213.713C111.764 212.617 111.367 211.565 110.807 210.598C110.748 211.893 110.366 213.153 109.695 214.262C109.677 214.291 109.661 214.321 109.648 214.353C109.44 214.689 109.211 215.011 108.962 215.317C108.951 215.325 108.94 215.335 108.931 215.346C101.388 216.356 96.1 177.446 106.783 176.722C107.094 176.7 107.153 176.226 107.346 175.981C107.538 175.735 107.725 175.498 107.926 175.259C107.952 175.236 107.974 175.209 107.991 175.179C108.562 174.518 109.153 173.882 109.778 173.268C109.962 173.09 110.154 172.911 110.345 172.732C113.277 170.04 116.767 168.029 120.566 166.843C120.995 166.711 121.44 166.583 121.893 166.461C122.341 166.347 122.797 166.239 123.256 166.145L123.412 166.113C123.63 166.068 123.858 166.029 124.078 165.991C124.355 165.942 124.633 165.9 124.906 165.866C125.93 166.382 126.806 167.15 127.452 168.098L134.916 166.57C135.114 166.529 135.313 166.496 135.514 166.47L135.528 166.467C144.847 164.905 150.839 172.4 152.773 181.858Z" fill="#2F2E41"/>
<path d="M112.091 174.979C110.493 176.133 108.812 177.321 106.862 177.607C104.911 177.893 102.628 176.95 102.088 175.054C101.429 172.735 103.522 170.624 105.403 169.117L111.368 164.339C112.461 163.37 113.694 162.573 115.026 161.974C115.695 161.68 116.421 161.539 117.152 161.564C117.882 161.588 118.598 161.777 119.245 162.115C119.887 162.548 120.406 163.138 120.755 163.829C121.103 164.52 121.269 165.288 121.237 166.062C121.152 167.611 120.641 169.107 119.76 170.385C118.652 172.111 117.207 173.596 115.511 174.749C113.815 175.902 111.903 176.7 109.891 177.095" fill="#2F2E41"/>
<path d="M157.335 299.116H114.087C112.558 299.116 111.091 299.724 110.01 300.806C108.928 301.887 108.321 303.354 108.321 304.884C108.321 306.414 108.928 307.881 110.01 308.963C111.091 310.045 112.558 310.652 114.087 310.652H129.945V355.355H141.478V310.652H157.335C158.865 310.652 160.332 310.045 161.413 308.963C162.494 307.881 163.102 306.414 163.102 304.884C163.102 303.354 162.494 301.887 161.413 300.806C160.332 299.724 158.865 299.116 157.335 299.116Z" fill="#3F3D56"/>
<path d="M317.113 482.057L0.858214 482.279C0.631021 482.278 0.413364 482.188 0.252947 482.027C0.0925297 481.866 0.00244141 481.648 0.00244141 481.42C0.00244141 481.193 0.0925297 480.975 0.252947 480.814C0.413364 480.653 0.631021 480.563 0.858214 480.562L317.113 480.34C317.34 480.341 317.558 480.432 317.718 480.593C317.878 480.754 317.968 480.972 317.968 481.199C317.968 481.426 317.878 481.644 317.718 481.805C317.558 481.966 317.34 482.057 317.113 482.057Z" fill="#CACACA"/>
<path d="M409.146 386.297L416.186 393.971L449.13 370.461L438.739 359.134L409.146 386.297Z" fill="#A0616A"/>
<path d="M423.717 397.158V397.151L423.003 389.487L422.679 389.335L420.783 388.434L411.838 384.202L411.651 384L409.856 382.039L399.916 391.167L413.381 405.846L422.614 415.911L422.924 415.623C424.19 414.463 425.214 413.066 425.939 411.51C426.663 409.954 427.074 408.27 427.148 406.555C427.222 404.84 426.957 403.127 426.368 401.515C425.779 399.902 424.878 398.422 423.717 397.158Z" fill="#2F2E41"/>
<path d="M372.671 462.856L382.634 465.884L399.049 428.883L384.344 424.415L372.671 462.856Z" fill="#A0616A"/>
<path d="M398.467 471.141C397.664 469.623 396.568 468.281 395.241 467.192C393.914 466.103 392.384 465.288 390.74 464.796L386.221 458.559L385.868 458.588L373.924 459.684L373.657 459.605L371.12 458.833L367.199 471.746L399.325 481.509L399.448 481.098C399.949 479.455 400.12 477.73 399.952 476.021C399.784 474.312 399.279 472.654 398.467 471.141Z" fill="#2F2E41"/>
<path d="M454.828 269.127C454.828 269.127 518.44 330.562 478.226 349.579H465.796C465.796 349.579 462.061 336.305 453.509 325.111C452.335 323.574 447.936 323.886 446.714 322.388C439.254 313.241 431.167 305.385 425.581 305.696L426.918 348.144L429.08 363.285C430.215 371.112 398.17 439.454 398.17 439.454L378.028 431.536C378.028 431.536 399.013 375.246 399.259 367.131L382.442 277.904L454.828 269.127Z" fill="#2F2E41"/>
<path d="M460.133 272.158C459.808 272.62 459.385 273.005 458.893 273.282C458.082 273.741 457.204 274.067 456.291 274.249C441.968 277.5 395.18 284.242 383.035 281.026C381.543 280.637 380.57 280.089 380.253 279.368C379.236 277.089 379.366 267.464 379.964 255.841C380.072 253.664 382.473 251.306 382.617 249.028C382.718 247.319 380.563 245.711 380.678 243.974C381.471 232.221 382.494 220.245 383.179 212.675C383.612 207.808 383.907 204.765 383.907 204.765L376.519 158.167L376.865 157.597L377.254 157.403L401.077 145.607L402.374 142.29C402.75 141.335 403.404 140.515 404.25 139.935C405.097 139.356 406.098 139.043 407.124 139.039L422.816 138.974C423.63 138.969 424.434 139.159 425.16 139.528C425.886 139.897 426.513 140.433 426.99 141.093L431.243 146.984L459.354 165.009L459.246 165.341L446.055 205.494L445.99 208.623V208.63L445.5 233.793L446.862 237.203L445.327 242.798C445.327 242.798 446.034 249.338 449.818 254.197C453.249 258.61 457.617 263.21 459.592 266.945V266.952C460.688 269.014 461.055 270.802 460.133 272.158Z" fill="#6C63FF"/>
<path d="M481.28 345.93L477.88 350.227C477.88 350.227 446.609 372.111 445.535 374.156L440.593 378.834L428.635 366.048L434.854 358.251C439.83 352.012 446.26 347.088 453.58 343.911L463.11 335.453L481.28 345.93Z" fill="#2F2E41"/>
<path d="M461.41 284.509L455.715 229.374L454.212 206.682L470.151 203.799C470.151 203.799 469.52 220.024 471.608 229.179C473.668 238.212 471.881 283.299 471.754 284.504C472.924 285.551 473.749 286.929 474.12 288.455C474.491 289.982 474.389 291.585 473.83 293.052C473.27 294.52 472.278 295.782 470.985 296.674C469.692 297.565 468.158 298.043 466.588 298.043C465.018 298.044 463.484 297.568 462.19 296.678C460.897 295.788 459.903 294.526 459.342 293.059C458.781 291.592 458.678 289.989 459.047 288.462C459.416 286.936 460.24 285.557 461.41 284.509Z" fill="#A0616A"/>
<path d="M476.958 240.799L456.471 245.04L454.679 237.897L452.591 235.681L448.418 213.818L442.432 201.011L443.988 157.214L459.193 165.28L459.211 165.294C461.537 167.819 463.14 171.433 465.805 175.06C474.202 186.487 475.133 214.254 474.879 229.463C474.875 229.712 475.126 229.976 475.427 230.253C476.857 231.566 477.79 233.332 478.069 235.253C478.348 237.175 477.955 239.133 476.958 240.799Z" fill="#6C63FF"/>
<path d="M368.639 286.672L374.333 231.536L375.836 208.844L359.897 205.961C359.897 205.961 360.529 222.187 358.441 231.341C356.38 240.375 358.167 285.461 358.295 286.667C357.124 287.714 356.299 289.092 355.928 290.618C355.558 292.144 355.659 293.747 356.219 295.215C356.779 296.682 357.771 297.945 359.064 298.836C360.357 299.728 361.89 300.205 363.46 300.206C365.031 300.207 366.564 299.73 367.858 298.84C369.152 297.95 370.145 296.689 370.706 295.222C371.268 293.755 371.371 292.152 371.001 290.625C370.632 289.098 369.808 287.72 368.639 286.672Z" fill="#A0616A"/>
<path d="M387.619 203.172L383.179 212.675L381.629 215.984L377.456 237.845L375.373 240.058L373.578 247.203L372.735 247.03L357.526 243.88L353.093 242.964C352.093 241.299 351.7 239.34 351.978 237.418C352.257 235.496 353.19 233.729 354.621 232.416C354.923 232.142 355.176 231.875 355.168 231.623C354.916 216.417 355.846 188.651 364.243 177.223C366.91 173.596 368.511 169.984 370.839 167.46C370.846 167.453 370.846 167.446 370.853 167.446L376.519 158.167L376.865 157.597L377.254 157.402L387.619 203.172Z" fill="#6C63FF"/>
<path d="M414.517 134.505C426.048 134.505 435.396 125.155 435.396 113.621C435.396 102.087 426.048 92.7363 414.517 92.7363C402.986 92.7363 393.639 102.087 393.639 113.621C393.639 125.155 402.986 134.505 414.517 134.505Z" fill="#A0616A"/>
<path d="M437.989 104.459C437.917 100.898 437.513 96.3408 435.019 92.7069C432.915 89.6498 428.669 87.2273 424.712 88.4385C424.756 87.647 424.58 86.8587 424.204 86.1612C423.827 85.4637 423.264 84.8843 422.578 84.4874C421.079 83.5718 419.277 83.4059 417.684 83.2545C413.669 82.8796 409.51 82.4903 405.445 83.2617C400.882 84.1269 397.148 86.4774 395.209 89.7147L395.166 89.8157L394.769 91.7335C394.717 91.9908 394.609 92.2335 394.453 92.445C394.298 92.6566 394.098 92.832 393.868 92.9592C393.639 93.0883 393.383 93.1649 393.12 93.1836C392.857 93.2023 392.593 93.1626 392.348 93.0674C392.079 92.9665 391.788 92.9375 391.504 92.9834C391.221 93.0293 390.954 93.1484 390.73 93.329C390.507 93.5096 390.334 93.7455 390.23 94.0132C390.125 94.2809 390.093 94.5712 390.135 94.8555L390.243 95.6198L389.097 95.4035C388.809 95.3478 388.512 95.3699 388.235 95.4675C387.959 95.5652 387.714 95.7349 387.525 95.959C387.336 96.1832 387.211 96.4537 387.161 96.7426C387.112 97.0315 387.141 97.3284 387.244 97.6025L387.561 98.475C387.325 98.4781 387.091 98.5289 386.874 98.6243C386.657 98.7196 386.462 98.8577 386.3 99.0301C386.068 99.2815 385.923 99.5999 385.884 99.9394C385.845 100.279 385.915 100.622 386.084 100.919C387.368 103.112 389.189 104.943 391.374 106.24C392.357 106.832 393.417 107.286 394.524 107.588C394.755 107.653 394.993 107.711 395.238 107.762C404.088 109.669 413.212 109.943 422.16 108.569C421.633 110.335 421.43 112.182 421.562 114.02C421.85 116.32 423.198 118.216 425 118.851C425.408 118.989 425.828 119.09 426.254 119.153C426.663 119.22 427.065 119.318 427.458 119.449C428.038 119.661 428.551 120.023 428.946 120.498C429.341 120.972 429.604 121.543 429.708 122.152C429.812 122.76 429.753 123.386 429.538 123.965C429.322 124.543 428.958 125.055 428.482 125.448C428.482 125.448 430.37 127.012 430.608 126.933C431.536 126.523 432.313 125.832 432.828 124.957C436.425 119.781 438.162 112.888 437.989 104.459Z" fill="#2F2E41"/>
</g>
<defs>
<clipPath id="clip0_4_8186">
<rect width="558" height="483" fill="white"/>
</clipPath>
</defs>
</svg>
